<?xml version="1.0" encoding="UTF-8"?>
<!DOCTYPE svg PUBLIC "-//W3C//DTD SVG 1.1//EN" "http://www.w3.org/Graphics/SVG/1.1/DTD/svg11.dtd">
<svg xmlns="http://www.w3.org/2000/svg" version="1.1" width="40px" height="40px" style="shape-rendering:geometricPrecision; text-rendering:geometricPrecision; image-rendering:optimizeQuality; fill-rule:evenodd; clip-rule:evenodd" xmlns:xlink="http://www.w3.org/1999/xlink">
<g><path fill="#000000" fill-opacity="0.984" stroke="#000000" stroke-width="0.5" stroke-opacity="0.984" d="M 27.01,0 C 28,0 29,0 29.99,0 C 30.57,0.86 31.07,1.77 31.5,2.73 C 31.73,3.49 31.63,4.22 31.2,4.89 C 26.63,9.6 22.01,14.26 17.34,18.86 C 16.96,19.32 16.83,19.84 16.95,20.42 C 21.62,25.38 26.36,30.27 31.18,35.12 C 31.61,35.79 31.72,36.51 31.5,37.28 C 30.9,38.15 30.4,39.05 29.99,40 C 29,40 28.01,40 27.02,40 C 21.23,33.96 15.36,27.99 9.38,22.11 C 8.04,20.7 8.04,19.3 9.4,17.91 C 15.05,12.2 20.75,6.55 26.5,0.96 C 26.84,0.73 27.01,0.41 27.01,0 Z"/></g>
</svg>
