<?xml version="1.0" encoding="UTF-8"?>
<!DOCTYPE svg PUBLIC "-//W3C//DTD SVG 1.1//EN" "http://www.w3.org/Graphics/SVG/1.1/DTD/svg11.dtd">
<svg xmlns="http://www.w3.org/2000/svg" version="1.1" width="40px" height="40px" style="shape-rendering:geometricPrecision; text-rendering:geometricPrecision; image-rendering:optimizeQuality; fill-rule:evenodd; clip-rule:evenodd" xmlns:xlink="http://www.w3.org/1999/xlink">
<g><path fill="#000000" fill-opacity="0.992" d="M 2.03,0 C 7.01,0 11.99,0 16.97,0 C 17.48,0.64 18.02,1.26 18.6,1.85 C 18.84,2.37 19,2.91 19.06,3.49 C 20.44,13 21.53,22.54 22.34,32.1 C 21.92,32.74 21.31,33.03 20.53,32.97 C 15.18,32.97 9.84,32.97 4.49,32.97 C 2.66,33.07 1.16,32.41 0,30.97 C 0,21.33 0,11.68 0,2.03 C 0.84,1.52 1.51,0.84 2.03,0 Z M 40,9.04 C 40,18.69 40,28.33 40,37.97 C 39.26,38.59 38.59,39.27 37.96,40 C 31.63,40 25.3,40 18.97,40 C 20.62,38.16 22.24,36.29 23.83,34.4 C 24.36,33.82 24.71,33.15 24.91,32.4 C 24.06,24.15 23.16,15.91 22.2,7.68 C 22.52,7.24 22.95,7.04 23.5,7.09 C 27.83,7.08 32.15,7.1 36.48,7.16 C 37.87,7.37 39.05,8 40,9.04 Z M 5.95,21.01 C 6.35,22.21 7.05,22.42 8.03,21.64 C 8.35,20.6 8.67,19.57 9,18.53 C 9.98,17.63 11.02,17.57 12.12,18.35 C 12.5,19.36 12.82,20.39 13.07,21.44 C 13.7,22.27 14.36,22.33 15.07,21.59 C 15.23,20.9 15.23,20.2 15.06,19.5 C 14.45,16.48 13.83,13.45 13.2,10.43 C 12.78,8.5 11.59,7.82 9.64,8.37 C 8.91,8.49 8.43,8.89 8.19,9.59 C 7.33,13.38 6.59,17.18 5.95,21.01 Z M 26.04,19.02 C 27.48,20.72 28.64,22.61 29.53,24.68 C 29.62,25.11 29.54,25.51 29.29,25.87 C 28.54,26.42 27.88,27.05 27.3,27.77 C 27.08,28.26 27.18,28.66 27.62,28.97 C 28.22,29.18 28.8,29.13 29.35,28.81 C 30.02,28.26 30.74,27.8 31.5,27.41 C 32.62,27.78 33.67,28.33 34.65,29.07 C 35.7,29.15 36.15,28.68 35.99,27.65 C 35.58,27.02 35.07,26.49 34.44,26.06 C 34.09,25.65 33.94,25.17 34.02,24.63 C 34.88,22.63 36.02,20.82 37.45,19.19 C 37.6,18.83 37.53,18.52 37.22,18.27 C 36.11,17.82 34.96,17.62 33.75,17.65 C 33.14,16.8 32.43,16.07 31.61,15.45 C 30.93,15.98 30.39,16.65 30.02,17.46 C 28.88,17.66 27.74,17.87 26.6,18.09 C 26.25,18.3 26.06,18.61 26.04,19.02 Z M 30.26,21 C 30.39,20.34 30.81,20.03 31.51,20.08 C 33.58,19.85 33.96,20.54 32.65,22.14 C 32.4,22.54 32.04,22.73 31.58,22.7 C 30.9,22.33 30.46,21.76 30.26,21 Z M 13.98,37 C 13.92,36.3 14.18,35.77 14.76,35.4 C 15.66,35.31 16.56,35.28 17.46,35.29 C 18.82,35.28 19.13,35.84 18.39,36.96 C 17.75,37.73 17.06,38.44 16.32,39.1 C 15.77,39.29 15.29,39.18 14.87,38.78 C 14.42,38.26 14.13,37.67 13.98,37 Z"/></g>
<g><path fill="#000000" fill-opacity="0.016" d="M 0,0 C 0.68,0 1.35,0 2.03,0 C 1.51,0.84 0.84,1.52 0,2.03 C 0,1.35 0,0.68 0,0 Z M 16.97,0 C 24.65,0 32.32,0 40,0 C 40,3.01 40,6.03 40,9.04 C 39.05,8 37.87,7.37 36.48,7.16 C 32.15,7.1 27.83,7.08 23.5,7.09 C 22.95,7.04 22.52,7.24 22.2,7.68 C 23.16,15.91 24.06,24.15 24.91,32.4 C 24.71,33.15 24.36,33.82 23.83,34.4 C 22.24,36.29 20.62,38.16 18.97,40 C 12.65,40 6.32,40 0,40 C 0,36.99 0,33.98 0,30.97 C 1.16,32.41 2.66,33.07 4.49,32.97 C 9.84,32.97 15.18,32.97 20.53,32.97 C 21.31,33.03 21.92,32.74 22.34,32.1 C 21.53,22.54 20.44,13 19.06,3.49 C 19,2.91 18.84,2.37 18.6,1.85 C 18.02,1.26 17.48,0.64 16.97,0 Z M 26.04,19.02 C 26.06,18.61 26.25,18.3 26.6,18.09 C 27.74,17.87 28.88,17.66 30.02,17.46 C 30.39,16.65 30.93,15.98 31.61,15.45 C 32.43,16.07 33.14,16.8 33.75,17.65 C 34.96,17.62 36.11,17.82 37.22,18.27 C 37.53,18.52 37.6,18.83 37.45,19.19 C 36.02,20.82 34.88,22.63 34.02,24.63 C 33.94,25.17 34.09,25.65 34.44,26.06 C 35.44,26.59 35.98,27.4 36.06,28.5 C 35.74,29.05 35.27,29.24 34.65,29.07 C 33.67,28.33 32.62,27.78 31.5,27.41 C 30.74,27.8 30.02,28.26 29.35,28.81 C 28.8,29.13 28.22,29.18 27.62,28.97 C 27.18,28.66 27.08,28.26 27.3,27.77 C 27.88,27.05 28.54,26.42 29.29,25.87 C 29.54,25.51 29.62,25.11 29.53,24.68 C 28.64,22.61 27.48,20.72 26.04,19.02 Z M 30.26,21 C 30.46,21.76 30.9,22.33 31.58,22.7 C 32.04,22.73 32.4,22.54 32.65,22.14 C 33.96,20.54 33.58,19.85 31.51,20.08 C 30.81,20.03 30.39,20.34 30.26,21 Z M 13.98,37 C 14.13,37.67 14.42,38.26 14.87,38.78 C 15.29,39.18 15.77,39.29 16.32,39.1 C 17.06,38.44 17.75,37.73 18.39,36.96 C 19.13,35.84 18.82,35.28 17.46,35.29 C 16.56,35.28 15.66,35.31 14.76,35.4 C 14.18,35.77 13.92,36.3 13.98,37 Z M 40,37.97 C 40,38.65 40,39.32 40,40 C 39.32,40 38.64,40 37.96,40 C 38.59,39.27 39.26,38.59 40,37.97 Z"/></g>
<g><path fill="#000000" fill-opacity="0.059" d="M 5.95,21.01 C 6.59,17.18 7.33,13.38 8.19,9.59 C 8.43,8.89 8.91,8.49 9.64,8.37 C 11.59,7.82 12.78,8.5 13.2,10.43 C 13.83,13.45 14.45,16.48 15.06,19.5 C 15.38,20.53 15.18,21.41 14.48,22.15 C 13.85,22.25 13.38,22.01 13.07,21.44 C 12.82,20.39 12.5,19.36 12.12,18.35 C 11.02,17.57 9.98,17.63 9,18.53 C 8.67,19.57 8.35,20.6 8.03,21.64 C 7.05,22.42 6.35,22.21 5.95,21.01 Z M 9.82,14 C 9.24,14.52 9.22,15.07 9.76,15.63 C 11.64,16 12.34,15.25 11.87,13.37 C 11.88,12.76 11.65,12.26 11.18,11.87 C 10.98,11.62 10.73,11.44 10.43,11.33 C 9.98,12.14 9.78,13.03 9.82,14 Z"/></g>
<g><path fill="#000000" fill-opacity="0.404" d="M 11.18,11.87 C 11.65,12.26 11.88,12.76 11.87,13.37 C 12.34,15.25 11.64,16 9.76,15.63 C 9.22,15.07 9.24,14.52 9.82,14 C 10,14.75 10.35,14.9 10.88,14.46 C 11.03,13.6 11.13,12.74 11.18,11.87 Z"/></g>
<g><path fill="#000000" fill-opacity="0.929" d="M 11.18,11.87 C 11.13,12.74 11.03,13.6 10.88,14.46 C 10.35,14.9 10,14.75 9.82,14 C 9.78,13.03 9.98,12.14 10.43,11.33 C 10.73,11.44 10.98,11.62 11.18,11.87 Z"/></g>
</svg>
