<?xml version="1.0" encoding="UTF-8"?>
<!DOCTYPE svg PUBLIC "-//W3C//DTD SVG 1.1//EN" "http://www.w3.org/Graphics/SVG/1.1/DTD/svg11.dtd">
<svg xmlns="http://www.w3.org/2000/svg" version="1.1" width="40px" height="40px" style="shape-rendering:geometricPrecision; text-rendering:geometricPrecision; image-rendering:optimizeQuality; fill-rule:evenodd; clip-rule:evenodd" xmlns:xlink="http://www.w3.org/1999/xlink">
<g><path fill="#000000" fill-opacity="0.988" d="M 6.02,0 C 16.34,0 26.66,0 36.98,0 C 37.24,0.54 37.46,1.08 37.66,1.65 C 37.5,8.91 37.44,16.17 37.49,23.44 C 37.72,25.62 36.73,26.56 34.52,26.27 C 25.86,26.25 17.2,26.26 8.54,26.32 C 7.51,26.42 6.54,26.71 5.63,27.21 C 4.59,28.09 3.52,28.92 2.42,29.72 C 2.49,21.73 2.55,13.74 2.6,5.74 C 2.72,4.75 3.04,3.82 3.55,2.96 C 4.39,1.95 5.22,0.97 6.02,0 Z M 10.12,16.97 C 10.28,17.61 10.7,17.92 11.37,17.89 C 12.64,17.11 14.01,16.85 15.47,17.1 C 16.15,17.43 16.86,17.69 17.58,17.89 C 18.04,17.87 18.35,17.64 18.5,17.21 C 18.41,16.08 18.11,15.01 17.59,13.99 C 16.91,12.11 16.05,10.34 15.01,8.66 C 14.08,8.28 13.42,8.57 13.04,9.53 C 11.94,11.96 10.96,14.44 10.12,16.97 Z M 25.19,16.98 C 25.66,17.86 26.42,18.23 27.48,18.11 C 28.83,18.16 30.17,18.12 31.51,18 C 32.36,17.37 32.38,16.71 31.58,16.02 C 30.73,15.97 29.96,15.74 29.26,15.32 C 30.01,13.59 30.92,11.95 32.01,10.39 C 32.43,8.97 31.92,8.23 30.47,8.17 C 29.48,8.15 28.5,8.16 27.51,8.18 C 26.71,8.14 26.02,8.37 25.43,8.88 C 25.25,9.28 25.28,9.67 25.52,10.05 C 26.44,10.44 27.4,10.75 28.39,10.99 C 28.43,11.15 28.48,11.32 28.52,11.49 C 27.2,13.2 26.09,15.03 25.19,16.98 Z M 19.69,13.01 C 19.99,13.82 20.57,14.27 21.45,14.35 C 22.49,14.52 23.33,14.21 23.99,13.42 C 23.95,12.49 23.45,12.02 22.49,12 C 21.35,11.81 20.41,12.15 19.69,13.01 Z M 5.05,32.99 C 4.96,30.59 6.11,29.21 8.49,28.86 C 16.5,28.8 24.51,28.77 32.52,28.77 C 33.44,28.65 34.19,28.91 34.78,29.57 C 34.52,30.74 33.77,31.33 32.53,31.32 C 24.61,31.3 16.69,31.32 8.77,31.41 C 8.01,31.83 7.8,32.44 8.14,33.24 C 8.81,33.62 9.39,34.09 9.9,34.64 C 10.01,35.64 9.57,36.18 8.57,36.28 C 6.54,36.08 5.37,34.99 5.05,32.99 Z M 20.02,35 C 20.18,34.25 20.66,33.86 21.45,33.83 C 25.15,33.81 28.85,33.81 32.55,33.82 C 33.75,33.79 34.49,34.33 34.77,35.46 C 34.57,35.99 34.17,36.29 33.59,36.36 C 29.88,36.39 26.18,36.41 22.47,36.43 C 21.79,36.48 21.15,36.35 20.54,36.05 C 20.18,35.79 20.01,35.44 20.02,35 Z"/></g>
<g><path fill="#000000" fill-opacity="0.039" d="M 0,0 C 2.01,0 4.01,0 6.02,0 C 5.22,0.97 4.39,1.95 3.55,2.96 C 3.04,3.82 2.72,4.75 2.6,5.74 C 2.55,13.74 2.49,21.73 2.42,29.72 C 3.52,28.92 4.59,28.09 5.63,27.21 C 6.54,26.71 7.51,26.42 8.54,26.32 C 17.2,26.26 25.86,26.25 34.52,26.27 C 36.73,26.56 37.72,25.62 37.49,23.44 C 37.44,16.17 37.5,8.91 37.66,1.65 C 37.46,1.08 37.24,0.54 36.98,0 C 37.99,0 38.99,0 40,0 C 40,13.33 40,26.67 40,40 C 32.66,40 25.32,40 17.98,40 C 17.65,38.27 17.53,36.52 17.63,34.75 C 17.44,34.23 17.07,33.92 16.52,33.81 C 15.84,33.69 15.16,33.64 14.47,33.68 C 13.54,33.63 12.83,33.98 12.33,34.73 C 12.39,36.5 12.29,38.26 12.02,40 C 8.01,40 4.01,40 0,40 C 0,26.67 0,13.33 0,0 Z M 10.12,16.97 C 10.96,14.44 11.94,11.96 13.04,9.53 C 13.42,8.57 14.08,8.28 15.01,8.66 C 16.05,10.34 16.91,12.11 17.59,13.99 C 18.11,15.01 18.41,16.08 18.5,17.21 C 18.35,17.64 18.04,17.87 17.58,17.89 C 16.86,17.69 16.15,17.43 15.47,17.1 C 14.01,16.85 12.64,17.11 11.37,17.89 C 10.7,17.92 10.28,17.61 10.12,16.97 Z M 25.19,16.98 C 26.09,15.03 27.2,13.2 28.52,11.49 C 28.48,11.32 28.43,11.15 28.39,10.99 C 27.4,10.75 26.44,10.44 25.52,10.05 C 25.28,9.67 25.25,9.28 25.43,8.88 C 26.02,8.37 26.71,8.14 27.51,8.18 C 28.5,8.16 29.48,8.15 30.47,8.17 C 31.92,8.23 32.43,8.97 32.01,10.39 C 30.92,11.95 30.01,13.59 29.26,15.32 C 29.96,15.74 30.73,15.97 31.58,16.02 C 32.38,16.71 32.36,17.37 31.51,18 C 29.56,18.23 27.61,18.15 25.69,17.78 C 25.38,17.6 25.21,17.33 25.19,16.98 Z M 13.87,13.99 C 14.54,14.83 14.89,14.68 14.93,13.53 C 14.4,13.09 14.05,13.25 13.87,13.99 Z M 5.05,32.99 C 5.37,34.99 6.54,36.08 8.57,36.28 C 9.57,36.18 10.01,35.64 9.9,34.64 C 9.39,34.09 8.81,33.62 8.14,33.24 C 7.8,32.44 8.01,31.83 8.77,31.41 C 16.69,31.32 24.61,31.3 32.53,31.32 C 33.77,31.33 34.52,30.74 34.78,29.57 C 34.19,28.91 33.44,28.65 32.52,28.77 C 24.51,28.77 16.5,28.8 8.49,28.86 C 6.11,29.21 4.96,30.59 5.05,32.99 Z M 20.02,35 C 20.01,35.44 20.18,35.79 20.54,36.05 C 21.15,36.35 21.79,36.48 22.47,36.43 C 26.18,36.41 29.88,36.39 33.59,36.36 C 34.88,35.99 35.08,35.3 34.2,34.3 C 33.69,33.99 33.15,33.83 32.55,33.82 C 28.85,33.81 25.15,33.81 21.45,33.83 C 20.66,33.86 20.18,34.25 20.02,35 Z"/></g>
<g><path fill="#000000" fill-opacity="0.941" d="M 17.98,40 C 15.99,40 14.01,40 12.02,40 C 12.29,38.26 12.39,36.5 12.33,34.73 C 12.83,33.98 13.54,33.63 14.47,33.68 C 15.16,33.64 15.84,33.69 16.52,33.81 C 17.07,33.92 17.44,34.23 17.63,34.75 C 17.53,36.52 17.65,38.27 17.98,40 Z"/></g>
<g><path fill="#000000" fill-opacity="0.059" d="M 19.69,13.01 C 20.41,12.15 21.35,11.81 22.49,12 C 24.02,12.16 24.35,12.84 23.49,14.04 C 22.49,14.44 21.49,14.44 20.48,14.07 C 20.07,13.82 19.81,13.47 19.69,13.01 Z"/></g>
<g><path fill="#000000" fill-opacity="0.643" d="M 13.87,13.99 C 14.05,13.25 14.4,13.09 14.93,13.53 C 14.89,14.68 14.54,14.83 13.87,13.99 Z"/></g>
</svg>
