<?xml version="1.0" encoding="UTF-8"?>
<!DOCTYPE svg PUBLIC "-//W3C//DTD SVG 1.1//EN" "http://www.w3.org/Graphics/SVG/1.1/DTD/svg11.dtd">
<svg xmlns="http://www.w3.org/2000/svg" version="1.1" width="40px" height="40px" style="shape-rendering:geometricPrecision; text-rendering:geometricPrecision; image-rendering:optimizeQuality; fill-rule:evenodd; clip-rule:evenodd" xmlns:xlink="http://www.w3.org/1999/xlink">
<g><path fill="#000000" fill-opacity="0.984" d="M 30.03,0 C 31.01,0 31.99,0 32.96,0 C 34.15,1.24 34.83,2.72 35.02,4.44 C 35.9,5.1 36.91,5.5 38.04,5.64 C 38.67,6.15 39.32,6.61 40,7.04 C 40,8.01 40,8.99 40,9.97 C 38.62,10.95 37.09,11.58 35.41,11.88 C 34.89,12.83 34.51,13.85 34.26,14.93 C 33.02,16.62 31.5,16.93 29.7,15.84 C 28.85,14.84 28.35,13.67 28.21,12.34 C 27.13,11.68 25.96,11.17 24.7,10.83 C 23.2,9.27 23.16,7.67 24.58,6.02 C 25.77,5.56 26.95,5.08 28.12,4.59 C 28.38,3.85 28.59,3.09 28.73,2.32 C 29.25,1.59 29.68,0.81 30.03,0 Z M 27.87,39.84 C 26.93,39.87 26,39.89 25.06,39.91 C 23.39,37.6 22.13,35.06 21.28,32.31 C 21.1,31.81 20.78,31.44 20.31,31.21 C 17.38,31.04 14.44,30.98 11.49,31.02 C 10.61,30.96 9.78,31.13 9.01,31.54 C 7.84,34.45 6.5,37.27 4.97,40 C 3.99,40 3.02,40 2.04,40 C 1.59,39.09 0.91,38.41 0,37.96 C 0,36.98 0,36.01 0,35.04 C 0.6,34.78 1,34.33 1.21,33.68 C 4.75,24.92 8.32,16.17 11.91,7.42 C 13.97,4.46 15.98,4.5 17.96,7.54 C 21.62,16.54 25.28,25.53 28.94,34.52 C 29.82,36.55 29.46,38.32 27.87,39.84 Z M 12.12,23.96 C 12.36,24.58 12.83,24.85 13.52,24.79 C 14.51,24.8 15.49,24.79 16.48,24.78 C 16.97,24.82 17.36,24.65 17.66,24.28 C 17.2,22.09 16.4,20.03 15.26,18.09 C 14.76,17.95 14.38,18.12 14.12,18.59 C 13.36,20.35 12.69,22.14 12.12,23.96 Z"/></g>
</svg>
