<?xml version="1.0" encoding="UTF-8"?>
<!DOCTYPE svg PUBLIC "-//W3C//DTD SVG 1.1//EN" "http://www.w3.org/Graphics/SVG/1.1/DTD/svg11.dtd">
<svg xmlns="http://www.w3.org/2000/svg" version="1.1" width="40px" height="40px" style="shape-rendering:geometricPrecision; text-rendering:geometricPrecision; image-rendering:optimizeQuality; fill-rule:evenodd; clip-rule:evenodd" xmlns:xlink="http://www.w3.org/1999/xlink">
<g><path fill="#000000" fill-opacity="0.988" d="M 0,34.97 C 0,34.32 0,33.68 0,33.03 C 0.53,32.73 0.88,32.28 1.05,31.68 C 4.68,22.63 8.37,13.59 12.12,4.58 C 13.41,2.73 15.04,2.4 16.99,3.58 C 17.56,4.33 18.02,5.15 18.36,6.04 C 21.85,14.57 25.33,23.11 28.79,31.65 C 29.76,33.49 29.56,35.18 28.2,36.7 C 26.41,37.55 24.92,37.2 23.75,35.64 C 22.81,33.34 21.78,31.08 20.65,28.88 C 20.27,28.58 19.83,28.44 19.35,28.46 C 16.42,28.45 13.5,28.44 10.58,28.43 C 9.81,28.41 9.22,28.72 8.8,29.37 C 7.96,31.25 7.16,33.14 6.38,35.04 C 5.38,37.06 3.82,37.65 1.7,36.82 C 1.11,36.23 0.54,35.61 0,34.97 Z M 40,5.03 C 40,5.68 40,6.32 40,6.96 C 39.34,7.87 38.47,8.49 37.41,8.82 C 33.77,8.99 30.14,9.03 26.5,8.94 C 24.75,8.78 23.77,7.82 23.54,6.06 C 23.58,4.13 24.55,3.07 26.47,2.88 C 30.14,2.76 33.81,2.8 37.48,2.98 C 37.74,3.07 38.01,3.15 38.27,3.24 C 38.82,3.86 39.4,4.46 40,5.03 Z M 12.08,21.91 C 13.55,22.25 15.05,22.34 16.56,22.18 C 17.08,22.14 17.49,21.91 17.77,21.48 C 17.08,19.36 16.22,17.33 15.19,15.38 C 14.79,15.22 14.47,15.32 14.24,15.7 C 13.32,17.71 12.6,19.78 12.08,21.91 Z"/></g>
</svg>
