<?xml version="1.0" encoding="UTF-8"?>
<!DOCTYPE svg PUBLIC "-//W3C//DTD SVG 1.1//EN" "http://www.w3.org/Graphics/SVG/1.1/DTD/svg11.dtd">
<svg xmlns="http://www.w3.org/2000/svg" version="1.1" width="40px" height="40px" style="shape-rendering:geometricPrecision; text-rendering:geometricPrecision; image-rendering:optimizeQuality; fill-rule:evenodd; clip-rule:evenodd" xmlns:xlink="http://www.w3.org/1999/xlink">
<g><path fill="#000000" fill-opacity="0.996" d="M 19.02,0 C 19.67,0 20.33,0 20.98,0 C 20.94,0.42 21.12,0.71 21.5,0.9 C 26.96,3.35 32.36,5.93 37.71,8.64 C 38.23,8.82 38.63,9.15 38.9,9.63 C 39.23,15.57 39.37,21.53 39.31,27.5 C 39.42,28.79 39.11,29.95 38.36,30.98 C 33.04,33.63 27.7,36.25 22.35,38.84 C 21.78,39.1 21.32,39.48 20.97,40 C 20.33,40 19.68,40 19.04,40 C 18.9,39.7 18.68,39.46 18.39,39.28 C 13.01,36.67 7.64,34.02 2.3,31.33 C 1.79,31.13 1.4,30.79 1.13,30.33 C 0.86,25.41 0.73,20.47 0.74,15.52 C 0.72,13.85 0.77,12.18 0.9,10.51 C 0.91,9.94 1.13,9.46 1.56,9.08 C 3.56,8.02 5.57,7.01 7.61,6.04 C 8.22,5.83 8.85,5.79 9.48,5.91 C 15.29,8.72 21.01,11.7 26.64,14.83 C 26.94,15.33 27.09,15.88 27.08,16.47 C 27.07,18.81 27.08,21.15 27.12,23.49 C 27.11,23.98 27.3,24.35 27.71,24.6 C 29.05,24.32 30.23,23.73 31.26,22.83 C 31.59,22.42 31.74,21.96 31.71,21.44 C 31.72,19.46 31.73,17.48 31.73,15.5 C 31.85,14.38 31.65,13.32 31.13,12.35 C 25.48,9.4 19.88,6.39 14.34,3.32 C 14.33,2.92 14.51,2.63 14.87,2.46 C 15.94,1.64 17.12,1.12 18.43,0.9 C 18.85,0.74 19.05,0.44 19.02,0 Z"/></g>
<g><path fill="#000000" fill-opacity="0.02" d="M 0,0 C 6.34,0 12.68,0 19.02,0 C 19.05,0.44 18.85,0.74 18.43,0.9 C 17.12,1.12 15.94,1.64 14.87,2.46 C 14.51,2.63 14.33,2.92 14.34,3.32 C 19.88,6.39 25.48,9.4 31.13,12.35 C 31.65,13.32 31.85,14.38 31.73,15.5 C 31.73,17.48 31.72,19.46 31.71,21.44 C 31.74,21.96 31.59,22.42 31.26,22.83 C 30.23,23.73 29.05,24.32 27.71,24.6 C 27.3,24.35 27.11,23.98 27.12,23.49 C 27.08,21.15 27.07,18.81 27.08,16.47 C 27.09,15.88 26.94,15.33 26.64,14.83 C 21.01,11.7 15.29,8.72 9.48,5.91 C 8.85,5.79 8.22,5.83 7.61,6.04 C 5.57,7.01 3.56,8.02 1.56,9.08 C 1.13,9.46 0.91,9.94 0.9,10.51 C 0.77,12.18 0.72,13.85 0.74,15.52 C 0.73,20.47 0.86,25.41 1.13,30.33 C 1.4,30.79 1.79,31.13 2.3,31.33 C 7.64,34.02 13.01,36.67 18.39,39.28 C 18.68,39.46 18.9,39.7 19.04,40 C 12.69,40 6.35,40 0,40 C 0,26.67 0,13.33 0,0 Z M 20.98,0 C 27.32,0 33.66,0 40,0 C 40,13.33 40,26.67 40,40 C 33.66,40 27.32,40 20.97,40 C 21.32,39.48 21.78,39.1 22.35,38.84 C 27.7,36.25 33.04,33.63 38.36,30.98 C 39.11,29.95 39.42,28.79 39.31,27.5 C 39.37,21.53 39.23,15.57 38.9,9.63 C 38.63,9.15 38.23,8.82 37.71,8.64 C 32.36,5.93 26.96,3.35 21.5,0.9 C 21.12,0.71 20.94,0.42 20.98,0 Z"/></g>
</svg>
