<?xml version="1.0" encoding="UTF-8"?>
<!DOCTYPE svg PUBLIC "-//W3C//DTD SVG 1.1//EN" "http://www.w3.org/Graphics/SVG/1.1/DTD/svg11.dtd">
<svg xmlns="http://www.w3.org/2000/svg" version="1.1" width="40px" height="40px" style="shape-rendering:geometricPrecision; text-rendering:geometricPrecision; image-rendering:optimizeQuality; fill-rule:evenodd; clip-rule:evenodd" xmlns:xlink="http://www.w3.org/1999/xlink">
<g><path fill="#000000" fill-opacity="0.984" stroke="#000000" stroke-width="0.5" stroke-opacity="0.984" d="M 10.01,0 C 11,0 12,0 12.99,0 C 12.99,0.41 13.16,0.73 13.5,0.96 C 19.27,6.53 24.98,12.18 30.62,17.89 C 31.99,19.3 31.99,20.7 30.62,22.11 C 24.66,27.99 18.78,33.96 12.98,40 C 11.99,40 11,40 10.01,40 C 9.71,38.99 9.2,38.09 8.49,37.29 C 8.29,36.52 8.4,35.79 8.83,35.12 C 13.39,30.4 18,25.75 22.68,21.15 C 23.06,20.69 23.19,20.16 23.06,19.58 C 18.38,14.63 13.64,9.73 8.83,4.88 C 8.41,4.21 8.32,3.49 8.54,2.74 C 8.94,1.77 9.43,0.85 10.01,0 Z"/></g>
</svg>
