<?xml version="1.0" encoding="UTF-8"?>
<!DOCTYPE svg PUBLIC "-//W3C//DTD SVG 1.1//EN" "http://www.w3.org/Graphics/SVG/1.1/DTD/svg11.dtd">
<svg xmlns="http://www.w3.org/2000/svg" version="1.1" width="40px" height="40px" style="shape-rendering:geometricPrecision; text-rendering:geometricPrecision; image-rendering:optimizeQuality; fill-rule:evenodd; clip-rule:evenodd" xmlns:xlink="http://www.w3.org/1999/xlink">
<g><path fill="#000000" fill-opacity="0.988" d="M 6.02,0 C 15.34,0 24.66,0 33.98,0 C 34.61,0.82 35.29,1.63 36.02,2.42 C 36.34,3.1 36.54,3.81 36.6,4.55 C 36.65,14.2 36.68,23.85 36.66,33.51 C 36.72,34.69 36.6,35.85 36.29,36.99 C 35.69,38.12 34.91,39.13 33.96,40 C 24.65,40 15.34,40 6.03,40 C 5.29,39.21 4.61,38.38 3.97,37.51 C 3.45,36.23 3.25,34.89 3.37,33.5 C 3.37,23.9 3.38,14.29 3.4,4.69 C 3.49,3.66 3.81,2.69 4.36,1.81 C 5.12,1.37 5.67,0.76 6.02,0 Z M 8.25,15.08 C 8.28,15.87 8.55,16.55 9.05,17.13 C 9.36,17.25 9.68,17.27 10.01,17.18 C 10.48,16.74 11.02,16.39 11.61,16.12 C 12.14,15.98 12.54,16.15 12.8,16.64 C 12.95,17.92 13,19.21 12.95,20.51 C 12.58,21.79 12.29,23.06 12.08,24.34 C 12.42,24.82 12.89,25.06 13.49,25.06 C 14.41,25.15 15.29,25.01 16.11,24.61 C 16.37,24.29 16.44,23.94 16.32,23.54 C 15.4,21.39 15.13,19.15 15.5,16.82 C 15.65,16.34 15.97,16.09 16.48,16.09 C 17.2,16.27 17.76,16.67 18.18,17.3 C 18.47,17.53 18.78,17.54 19.09,17.35 C 20.07,16.33 20.24,15.17 19.6,13.88 C 18.98,13.42 18.27,13.21 17.48,13.25 C 15.16,13.25 12.84,13.26 10.52,13.28 C 9.26,13.23 8.5,13.84 8.25,15.08 Z M 23.65,14.96 C 24.08,15.6 24.7,15.92 25.49,15.91 C 27.38,16.09 29.23,15.96 31.05,15.51 C 31.6,14.54 31.37,13.84 30.36,13.4 C 28.24,13.11 26.14,13.19 24.07,13.65 C 23.82,14.05 23.68,14.49 23.65,14.96 Z M 23.42,19.54 C 24.99,20.4 26.69,20.71 28.5,20.45 C 29.74,20.58 30.77,20.21 31.57,19.32 C 31.51,18.64 31.14,18.23 30.47,18.08 C 28.81,17.96 27.14,17.92 25.47,17.98 C 24.31,17.9 23.62,18.42 23.42,19.54 Z M 23.52,23.07 C 23.42,24.45 24.07,25.11 25.46,25.04 C 27.13,25.11 28.8,25.07 30.47,24.91 C 31.45,24.58 31.68,23.96 31.17,23.03 C 30.95,22.76 30.66,22.6 30.3,22.57 C 28.72,22.67 27.14,22.66 25.55,22.54 C 24.83,22.54 24.15,22.71 23.52,23.07 Z M 8.47,28.08 C 8.4,29.47 9.07,30.12 10.47,30.02 C 16.82,30.03 23.18,30.03 29.53,30.02 C 30.7,30.12 31.36,29.62 31.51,28.51 C 31.49,28.13 31.3,27.87 30.94,27.74 C 30.14,27.53 29.32,27.42 28.5,27.41 C 22.83,27.44 17.17,27.45 11.5,27.42 C 10.44,27.41 9.43,27.62 8.47,28.08 Z M 8.38,33.43 C 8.93,34.83 9.97,35.35 11.49,34.99 C 17.5,34.98 23.51,34.97 29.53,34.97 C 30.57,35.06 31.24,34.62 31.54,33.67 C 30.76,32.76 29.75,32.38 28.5,32.52 C 22.83,32.55 17.16,32.55 11.5,32.52 C 10.35,32.48 9.31,32.78 8.38,33.43 Z"/></g>
<g><path fill="#000000" fill-opacity="0.031" d="M 0,0 C 2.01,0 4.01,0 6.02,0 C 5.67,0.76 5.12,1.37 4.36,1.81 C 3.81,2.69 3.49,3.66 3.4,4.69 C 3.38,14.29 3.37,23.9 3.37,33.5 C 3.25,34.89 3.45,36.23 3.97,37.51 C 4.61,38.38 5.29,39.21 6.03,40 C 4.02,40 2.01,40 0,40 C 0,26.67 0,13.33 0,0 Z M 33.98,0 C 35.99,0 37.99,0 40,0 C 40,13.33 40,26.67 40,40 C 37.99,40 35.97,40 33.96,40 C 34.91,39.13 35.69,38.12 36.29,36.99 C 36.6,35.85 36.72,34.69 36.66,33.51 C 36.68,23.85 36.65,14.2 36.6,4.55 C 36.54,3.81 36.34,3.1 36.02,2.42 C 35.29,1.63 34.61,0.82 33.98,0 Z M 8.25,15.08 C 8.5,13.84 9.26,13.23 10.52,13.28 C 12.84,13.26 15.16,13.25 17.48,13.25 C 19.15,13.1 19.99,13.85 19.99,15.5 C 20,16.27 19.7,16.89 19.09,17.35 C 18.78,17.54 18.47,17.53 18.18,17.3 C 17.76,16.67 17.2,16.27 16.48,16.09 C 15.97,16.09 15.65,16.34 15.5,16.82 C 15.13,19.15 15.4,21.39 16.32,23.54 C 16.44,23.94 16.37,24.29 16.11,24.61 C 15.29,25.01 14.41,25.15 13.49,25.06 C 12.89,25.06 12.42,24.82 12.08,24.34 C 12.29,23.06 12.58,21.79 12.95,20.51 C 13,19.21 12.95,17.92 12.8,16.64 C 12.54,16.15 12.14,15.98 11.61,16.12 C 11.02,16.39 10.48,16.74 10.01,17.18 C 9.68,17.27 9.36,17.25 9.05,17.13 C 8.55,16.55 8.28,15.87 8.25,15.08 Z M 23.65,14.96 C 23.66,13.74 24.28,13.18 25.51,13.29 C 27.13,13.2 28.75,13.23 30.36,13.4 C 31.37,13.84 31.6,14.54 31.05,15.51 C 29.23,15.96 27.38,16.09 25.49,15.91 C 24.7,15.92 24.08,15.6 23.65,14.96 Z M 23.52,23.07 C 24.15,22.71 24.83,22.54 25.55,22.54 C 27.14,22.66 28.72,22.67 30.3,22.57 C 31.12,22.75 31.49,23.27 31.42,24.13 C 31.26,24.57 30.94,24.83 30.47,24.91 C 28.8,25.07 27.13,25.11 25.46,25.04 C 24.07,25.11 23.42,24.45 23.52,23.07 Z M 8.47,28.08 C 9.43,27.62 10.44,27.41 11.5,27.42 C 17.17,27.45 22.83,27.44 28.5,27.41 C 29.32,27.42 30.14,27.53 30.94,27.74 C 31.63,28.28 31.69,28.91 31.12,29.62 C 30.63,29.89 30.1,30.03 29.53,30.02 C 23.18,30.03 16.82,30.03 10.47,30.02 C 9.07,30.12 8.4,29.47 8.47,28.08 Z"/></g>
<g><path fill="#000000" fill-opacity="0.063" d="M 8.38,33.43 C 9.31,32.78 10.35,32.48 11.5,32.52 C 17.16,32.55 22.83,32.55 28.5,32.52 C 29.75,32.38 30.76,32.76 31.54,33.67 C 31.24,34.62 30.57,35.06 29.53,34.97 C 23.51,34.97 17.5,34.98 11.49,34.99 C 9.97,35.35 8.93,34.83 8.38,33.43 Z"/></g>
<g><path fill="#000000" fill-opacity="0.027" d="M 23.42,19.54 C 23.62,18.42 24.31,17.9 25.47,17.98 C 27.39,17.82 29.28,17.95 31.14,18.37 C 31.8,19.24 31.59,19.85 30.52,20.2 C 28.85,20.46 27.16,20.52 25.47,20.39 C 24.7,20.3 24.02,20.01 23.42,19.54 Z"/></g>
</svg>
