<?xml version="1.0" encoding="UTF-8"?>
<!DOCTYPE svg PUBLIC "-//W3C//DTD SVG 1.1//EN" "http://www.w3.org/Graphics/SVG/1.1/DTD/svg11.dtd">
<svg xmlns="http://www.w3.org/2000/svg" version="1.1" width="40px" height="40px" style="shape-rendering:geometricPrecision; text-rendering:geometricPrecision; image-rendering:optimizeQuality; fill-rule:evenodd; clip-rule:evenodd" xmlns:xlink="http://www.w3.org/1999/xlink">
<g><path fill="#000000" fill-opacity="0.984" d="M 12.03,0 C 14.68,0 17.33,0 19.97,0 C 21.91,1.11 23.82,2.33 25.69,3.67 C 30.46,7.93 32.17,13.2 30.83,19.47 C 30.17,21.08 29.64,22.71 29.22,24.37 C 32.66,28.07 36.26,31.63 40,35.03 C 40,36.01 40,37 40,37.98 C 39.25,38.57 38.57,39.25 37.98,40 C 36.99,40 36.01,40 35.03,40 C 31.63,36.25 28.08,32.66 24.37,29.21 C 22.72,29.65 21.09,30.18 19.47,30.83 C 16.86,31.31 14.25,31.3 11.64,30.8 C 6.32,29.2 2.7,25.79 0.79,20.57 C 0.61,20.25 0.35,20.05 0,19.97 C 0,17.32 0,14.67 0,12.03 C 0.85,10.36 1.73,8.68 2.62,6.99 C 4.76,3.81 7.67,1.72 11.35,0.69 C 11.66,0.54 11.88,0.31 12.03,0 Z M 4.04,16 C 4.82,22.85 8.64,26.59 15.5,27.25 C 20.66,27.12 24.31,24.7 26.46,20 C 28.06,15.35 27.23,11.19 23.98,7.52 C 20.04,3.85 15.6,3.07 10.65,5.16 C 6.28,7.46 4.08,11.07 4.04,16 Z"/></g>
</svg>
