<?xml version="1.0" encoding="UTF-8"?>
<!DOCTYPE svg PUBLIC "-//W3C//DTD SVG 1.1//EN" "http://www.w3.org/Graphics/SVG/1.1/DTD/svg11.dtd">
<svg xmlns="http://www.w3.org/2000/svg" version="1.1" width="40px" height="40px" style="shape-rendering:geometricPrecision; text-rendering:geometricPrecision; image-rendering:optimizeQuality; fill-rule:evenodd; clip-rule:evenodd" xmlns:xlink="http://www.w3.org/1999/xlink">
<g><path fill="#000000" fill-opacity="0.988" d="M 40,8.03 C 40,9.34 40,10.66 40,11.97 C 34.02,18.38 28.02,24.78 22.01,31.16 C 21.48,31.27 21.01,31.16 20.59,30.82 C 17.11,27.52 13.81,24.07 10.69,20.47 C 10.69,19.85 10.94,19.36 11.45,18.98 C 17.74,13.28 24.14,7.73 30.65,2.32 C 31.79,1.9 32.92,1.91 34.05,2.35 C 36.14,4.14 38.12,6.03 40,8.03 Z M 6.9,26 C 6.85,24.92 7.07,23.91 7.56,22.95 C 7.97,22.48 8.47,22.39 9.05,22.65 C 12.4,25.88 15.71,29.16 18.97,32.48 C 19.36,32.91 19.49,33.41 19.36,33.97 C 18.51,34.58 17.56,34.92 16.51,34.98 C 14.94,35.1 13.4,34.95 11.89,34.54 C 10.37,33.11 8.88,31.63 7.44,30.12 C 6.98,28.79 6.8,27.42 6.9,26 Z M 0,37.98 C 0,37.33 0,36.67 0,36.02 C 1.75,34.48 3.53,32.99 5.36,31.54 C 6.71,32.7 8.01,33.93 9.26,35.24 C 10.41,36.59 10.16,37.52 8.5,38.01 C 5.66,38.08 2.83,38.07 0,37.98 Z M 20.2,36.98 C 20.37,36.14 20.89,35.73 21.76,35.74 C 25.46,35.64 29.14,35.69 32.82,35.9 C 33.53,36.39 33.67,37 33.24,37.72 C 32.69,37.93 32.11,38.04 31.52,38.04 C 28.51,38.04 25.49,38.04 22.48,38.05 C 21.46,38.17 20.69,37.82 20.2,36.98 Z"/></g>
</svg>
