<?xml version="1.0" encoding="UTF-8"?>
<!DOCTYPE svg PUBLIC "-//W3C//DTD SVG 1.1//EN" "http://www.w3.org/Graphics/SVG/1.1/DTD/svg11.dtd">
<svg xmlns="http://www.w3.org/2000/svg" version="1.1" width="40px" height="40px" style="shape-rendering:geometricPrecision; text-rendering:geometricPrecision; image-rendering:optimizeQuality; fill-rule:evenodd; clip-rule:evenodd" xmlns:xlink="http://www.w3.org/1999/xlink">
<g><path fill="#000000" fill-opacity="0.929" d="M 1.02,8.03 C 3.84,8.33 6.67,8.37 9.5,8.13 C 10.3,8.1 10.66,8.47 10.58,9.23 C 10.03,9.66 9.5,10.11 8.98,10.58 C 8.79,11.24 8.82,11.9 9.06,12.54 C 10.95,16.89 12.83,21.25 14.69,25.61 C 15.46,27.08 16.22,27.06 16.99,25.55 C 17.68,24.24 18.35,22.93 19,21.6 C 19.25,21.09 19.33,20.55 19.22,19.99 C 17.93,17.1 16.59,14.23 15.2,11.38 C 14.7,10.43 13.93,9.84 12.88,9.6 C 12.15,8.72 12.35,8.23 13.47,8.13 C 15.76,8.24 18.04,8.29 20.31,8.26 C 20.74,8.47 20.86,8.8 20.68,9.24 C 20.06,9.6 19.53,10.07 19.11,10.63 C 19.34,12.16 19.87,13.6 20.68,14.94 C 21.23,15.84 21.85,15.91 22.55,15.15 C 23.68,13.81 24.17,12.28 24.02,10.56 C 23.42,9.89 22.85,9.2 22.3,8.5 C 24.33,8.26 26.4,8.14 28.5,8.14 C 29.78,8.22 30.02,8.72 29.24,9.66 C 28.08,9.88 27.18,10.48 26.55,11.47 C 25.09,13.68 23.91,16.04 23.01,18.53 C 22.97,19.17 23.08,19.78 23.35,20.36 C 24.39,22.48 25.46,24.56 26.57,26.59 C 27.17,26.39 27.58,25.99 27.8,25.39 C 29.64,21.09 31.44,16.79 33.21,12.49 C 33.43,11.82 33.42,11.15 33.16,10.5 C 32.34,9.99 31.71,9.33 31.27,8.52 C 33.31,8.25 35.4,8.13 37.52,8.15 C 38.39,8.09 38.77,8.47 38.66,9.3 C 38.07,9.7 37.43,10.03 36.75,10.26 C 36.36,10.54 36.06,10.89 35.84,11.31 C 32.6,18.17 29.54,25.11 26.63,32.12 C 25.96,32.73 25.41,32.62 25,31.8 C 23.77,29.21 22.53,26.61 21.3,24.02 C 20.73,23.33 20.14,23.31 19.54,23.96 C 18.12,26.56 16.73,29.18 15.37,31.81 C 14.85,32.36 14.31,32.38 13.75,31.88 C 10.85,25.65 8.07,19.36 5.41,13.02 C 4.98,12.18 4.49,11.38 3.95,10.6 C 3.06,10.12 2.16,9.66 1.25,9.24 C 1.09,8.85 1.01,8.45 1.02,8.03 Z"/></g>
</svg>
